<mxfile host="app.diagrams.net" agent="Mozilla/5.0 (Windows NT 10.0; Win64; x64) AppleWebKit/537.36 (KHTML, like Gecko) Chrome/131.0.0.0 Safari/537.36" version="24.8.3">
  <diagram name="Page-1" id="tUFGysj9QEC054Qa5Ox9">
    <mxGraphModel dx="1714" dy="846" grid="1" gridSize="10" guides="1" tooltips="1" connect="1" arrows="1" fold="1" page="1" pageScale="1" pageWidth="850" pageHeight="1100" math="0" shadow="0">
      <root>
        <mxCell id="0" />
        <mxCell id="1" parent="0" />
        <mxCell id="XsJTvxxLfJOpQhYK401n-18" value="" style="rounded=0;whiteSpace=wrap;html=1;fillColor=#dae8fc;gradientColor=#7ea6e0;strokeColor=#6c8ebf;" vertex="1" parent="1">
          <mxGeometry x="128" y="60" width="595" height="530" as="geometry" />
        </mxCell>
        <mxCell id="XsJTvxxLfJOpQhYK401n-12" style="edgeStyle=orthogonalEdgeStyle;rounded=0;orthogonalLoop=1;jettySize=auto;html=1;" edge="1" parent="1" source="XsJTvxxLfJOpQhYK401n-3" target="XsJTvxxLfJOpQhYK401n-9">
          <mxGeometry relative="1" as="geometry" />
        </mxCell>
        <mxCell id="XsJTvxxLfJOpQhYK401n-13" value="" style="edgeStyle=orthogonalEdgeStyle;rounded=0;orthogonalLoop=1;jettySize=auto;html=1;" edge="1" parent="1" source="XsJTvxxLfJOpQhYK401n-3" target="XsJTvxxLfJOpQhYK401n-11">
          <mxGeometry relative="1" as="geometry" />
        </mxCell>
        <mxCell id="XsJTvxxLfJOpQhYK401n-14" style="edgeStyle=orthogonalEdgeStyle;rounded=0;orthogonalLoop=1;jettySize=auto;html=1;entryX=0;entryY=0.5;entryDx=0;entryDy=0;" edge="1" parent="1" source="XsJTvxxLfJOpQhYK401n-3" target="XsJTvxxLfJOpQhYK401n-10">
          <mxGeometry relative="1" as="geometry" />
        </mxCell>
        <mxCell id="XsJTvxxLfJOpQhYK401n-15" style="edgeStyle=orthogonalEdgeStyle;rounded=0;orthogonalLoop=1;jettySize=auto;html=1;entryX=0;entryY=0.5;entryDx=0;entryDy=0;" edge="1" parent="1" source="XsJTvxxLfJOpQhYK401n-3" target="XsJTvxxLfJOpQhYK401n-8">
          <mxGeometry relative="1" as="geometry" />
        </mxCell>
        <mxCell id="XsJTvxxLfJOpQhYK401n-3" value="&lt;b&gt;&lt;font style=&quot;font-size: 14px;&quot;&gt;Governace Contarct&lt;/font&gt;&lt;/b&gt;" style="rounded=1;whiteSpace=wrap;html=1;" vertex="1" parent="1">
          <mxGeometry x="343" y="340" width="180" height="60" as="geometry" />
        </mxCell>
        <mxCell id="XsJTvxxLfJOpQhYK401n-6" style="edgeStyle=orthogonalEdgeStyle;rounded=0;orthogonalLoop=1;jettySize=auto;html=1;entryX=0;entryY=0.5;entryDx=0;entryDy=0;" edge="1" parent="1" source="XsJTvxxLfJOpQhYK401n-4" target="XsJTvxxLfJOpQhYK401n-3">
          <mxGeometry relative="1" as="geometry" />
        </mxCell>
        <mxCell id="XsJTvxxLfJOpQhYK401n-4" value="Platform Token" style="rounded=0;whiteSpace=wrap;html=1;" vertex="1" parent="1">
          <mxGeometry x="152" y="270" width="140" height="60" as="geometry" />
        </mxCell>
        <mxCell id="XsJTvxxLfJOpQhYK401n-7" style="edgeStyle=orthogonalEdgeStyle;rounded=0;orthogonalLoop=1;jettySize=auto;html=1;entryX=0;entryY=0.5;entryDx=0;entryDy=0;" edge="1" parent="1" source="XsJTvxxLfJOpQhYK401n-5" target="XsJTvxxLfJOpQhYK401n-3">
          <mxGeometry relative="1" as="geometry" />
        </mxCell>
        <mxCell id="XsJTvxxLfJOpQhYK401n-5" value="Time Lock" style="rounded=0;whiteSpace=wrap;html=1;" vertex="1" parent="1">
          <mxGeometry x="152" y="410" width="140" height="60" as="geometry" />
        </mxCell>
        <mxCell id="XsJTvxxLfJOpQhYK401n-8" value="Proposals" style="rounded=0;whiteSpace=wrap;html=1;" vertex="1" parent="1">
          <mxGeometry x="571" y="200" width="120" height="60" as="geometry" />
        </mxCell>
        <mxCell id="XsJTvxxLfJOpQhYK401n-9" value="Voting" style="rounded=0;whiteSpace=wrap;html=1;" vertex="1" parent="1">
          <mxGeometry x="571" y="340" width="120" height="60" as="geometry" />
        </mxCell>
        <mxCell id="XsJTvxxLfJOpQhYK401n-10" value="Execution" style="rounded=0;whiteSpace=wrap;html=1;" vertex="1" parent="1">
          <mxGeometry x="571" y="452" width="120" height="60" as="geometry" />
        </mxCell>
        <mxCell id="XsJTvxxLfJOpQhYK401n-11" value="Platform Configurations" style="sketch=0;pointerEvents=1;shadow=0;dashed=0;html=1;strokeColor=none;labelPosition=center;verticalLabelPosition=bottom;verticalAlign=top;align=center;fillColor=#505050;shape=mxgraph.mscae.oms.config_assessment" vertex="1" parent="1">
          <mxGeometry x="383" y="442" width="100" height="80" as="geometry" />
        </mxCell>
        <mxCell id="XsJTvxxLfJOpQhYK401n-16" style="edgeStyle=orthogonalEdgeStyle;rounded=0;orthogonalLoop=1;jettySize=auto;html=1;entryX=1.074;entryY=0.503;entryDx=0;entryDy=0;entryPerimeter=0;" edge="1" parent="1" source="XsJTvxxLfJOpQhYK401n-10" target="XsJTvxxLfJOpQhYK401n-11">
          <mxGeometry relative="1" as="geometry" />
        </mxCell>
        <mxCell id="XsJTvxxLfJOpQhYK401n-19" value="&lt;h1 style=&quot;margin-top: 0px;&quot;&gt;Governance Framework&lt;/h1&gt;" style="text;html=1;whiteSpace=wrap;overflow=hidden;rounded=0;" vertex="1" parent="1">
          <mxGeometry x="292" y="90" width="284.5" height="50" as="geometry" />
        </mxCell>
      </root>
    </mxGraphModel>
  </diagram>
</mxfile>
